<?xml version="1.0" standalone="no"?>
<!DOCTYPE svg PUBLIC "-//W3C//DTD SVG 20010904//EN"
 "http://www.w3.org/TR/2001/REC-SVG-20010904/DTD/svg10.dtd">
<svg version="1.0" xmlns="http://www.w3.org/2000/svg"
 width="210.000000pt" height="240.000000pt" viewBox="0 0 210.000000 240.000000"
 preserveAspectRatio="xMidYMid meet">

<g transform="translate(0.000000,240.000000) scale(0.100000,-0.100000)"
fill="#000000" stroke="none">
<path d="M1210 2265 c-7 -8 -10 -22 -6 -30 5 -15 -57 -342 -73 -381 -7 -16
-16 -19 -45 -16 -34 4 -36 3 -36 -25 0 -30 26 -63 48 -63 17 0 15 -22 -18
-192 -16 -84 -30 -178 -29 -208 l0 -55 20 43 c14 32 89 359 89 389 0 2 20 1
44 -2 39 -6 44 -5 49 15 7 26 -40 80 -67 80 -12 0 -15 6 -11 23 3 12 19 100
36 196 16 95 35 181 41 191 23 36 -15 68 -42 35z"/>
<path d="M981 1665 c-1 -22 8 -59 19 -82 38 -85 39 -35 1 67 l-20 55 0 -40z"/>
<path d="M803 1624 c-29 -95 -24 -202 15 -296 49 -118 41 -216 -23 -266 -15
-12 -22 -22 -16 -22 6 0 16 -12 21 -26 l10 -26 49 49 c97 98 114 179 52 252
-17 20 -48 60 -68 90 -32 46 -38 63 -41 121 -3 43 2 87 11 121 9 29 14 55 12
57 -2 2 -12 -22 -22 -54z"/>
<path d="M1200 1457 c0 -8 13 -44 30 -79 37 -78 38 -117 4 -157 -21 -26 -23
-33 -13 -52 11 -22 12 -22 26 -3 60 79 66 145 22 231 -26 50 -69 88 -69 60z"/>
<path d="M991 1267 c-1 -104 -2 -111 -46 -213 -25 -57 -45 -111 -45 -118 0 -7
-9 -25 -21 -40 -35 -44 -41 -83 -22 -143 16 -52 16 -54 -4 -81 -17 -23 -43
-42 -78 -56 -5 -2 -2 -12 7 -22 21 -22 101 -35 222 -36 81 0 90 2 113 24 17
17 27 41 32 79 4 30 19 75 34 100 29 50 40 100 13 64 -12 -16 -16 -17 -30 -6
-22 18 -20 37 8 86 l24 41 -34 -4 c-27 -3 -41 1 -61 19 -47 45 -54 71 -47 169
7 87 6 91 -21 130 -16 23 -32 58 -35 78 -5 26 -8 4 -9 -71z"/>
<path d="M1134 1205 c-5 -16 -9 -60 -9 -97 0 -63 2 -70 32 -99 61 -62 88 4 36
91 -14 25 -32 65 -38 90 l-13 45 -8 -30z"/>
<path d="M706 1182 c-9 -28 0 -89 15 -98 17 -10 34 13 21 29 -6 7 -15 31 -20
53 -8 35 -9 37 -16 16z"/>
<path d="M667 983 c-33 -37 -30 -101 7 -125 21 -14 25 -8 10 20 -16 32 -18 61
-4 96 11 31 9 32 -13 9z"/>
<path d="M855 967 c-8 -19 -19 -38 -25 -42 -18 -11 -47 5 -60 33 -12 27 -12
27 -22 5 -15 -32 -2 -73 23 -73 18 0 20 -4 14 -42 -4 -29 -2 -49 7 -62 13 -16
14 -14 10 18 -3 28 2 46 21 74 31 44 60 112 53 120 -3 3 -12 -11 -21 -31z"/>
<path d="M1278 916 c2 -30 -1 -64 -7 -75 -15 -27 0 -27 24 -1 25 28 25 85 0
110 -20 19 -20 19 -17 -34z"/>
<path d="M723 763 c7 -41 37 -73 68 -73 26 0 24 7 -16 51 -19 22 -35 44 -35
49 0 6 -5 10 -11 10 -8 0 -10 -13 -6 -37z"/>
<path d="M1211 735 c-22 -26 -31 -46 -31 -72 0 -36 0 -36 20 -18 18 17 55 113
46 122 -2 2 -17 -12 -35 -32z"/>
<path d="M1343 698 c-38 -19 -37 -38 3 -38 41 0 107 28 98 41 -7 12 -74 10
-101 -3z"/>
<path d="M1251 655 c-7 -16 -30 -46 -52 -66 -34 -32 -37 -37 -17 -32 61 13 94
53 86 105 -4 22 -5 22 -17 -7z"/>
<path d="M1360 615 c0 -6 18 -14 160 -66 57 -21 106 -37 108 -35 10 10 -89 79
-132 91 -48 14 -136 21 -136 10z"/>
<path d="M598 587 c-35 -21 -78 -67 -62 -67 14 0 134 63 145 76 19 24 -41 17
-83 -9z"/>
<path d="M1292 580 c2 -6 119 -57 260 -114 166 -67 254 -98 251 -88 -8 19
-140 80 -335 153 -161 61 -182 67 -176 49z"/>
<path d="M720 543 c-57 -21 -431 -263 -407 -263 31 0 382 193 462 254 19 15
19 15 -10 15 -16 0 -37 -3 -45 -6z"/>
<path d="M1216 531 c-4 -5 51 -41 121 -79 71 -38 175 -97 233 -131 100 -58
105 -60 108 -39 2 13 11 31 19 40 18 20 24 17 -180 104 -83 36 -171 76 -194
90 -42 24 -97 32 -107 15z"/>
<path d="M715 453 c-55 -38 -127 -94 -160 -126 l-60 -58 50 27 c126 69 254
164 276 206 16 30 -2 21 -106 -49z"/>
<path d="M863 508 c-5 -7 -15 -26 -23 -43 -8 -16 -81 -96 -162 -177 -136 -135
-164 -168 -139 -168 17 0 115 83 201 169 80 81 165 204 154 223 -7 12 -20 10
-31 -4z"/>
<path d="M1044 506 c-3 -8 0 -73 6 -145 17 -193 23 -226 40 -226 18 0 17 75
-2 268 -9 85 -15 117 -25 117 -8 0 -16 -6 -19 -14z"/>
<path d="M931 408 c-22 -66 -35 -128 -37 -173 l-4 -70 56 163 c30 89 52 167
49 172 -16 26 -34 1 -64 -92z"/>
<path d="M1158 495 c18 -35 258 -265 275 -265 30 0 19 44 -20 82 -21 19 -83
68 -138 108 -55 40 -106 78 -114 84 -12 9 -12 8 -3 -9z"/>
</g>
</svg>
